<svg xmlns="http://www.w3.org/2000/svg" version="1.1" xmlns:xlink="http://www.w3.org/1999/xlink" xmlns:svgjs="http://svgjs.dev/svgjs" width="1000" height="1000" viewBox="0 0 1000 1000"><rect width="1000" height="1000" fill="#ffffff"></rect><g transform="matrix(0.7,0,0,0.7,149.57575757575756,439.7361493308432)"><svg viewBox="0 0 396 68" data-background-color="#ffffff" preserveAspectRatio="xMidYMid meet" height="171" width="1000" xmlns="http://www.w3.org/2000/svg" xmlns:xlink="http://www.w3.org/1999/xlink"><g id="tight-bounds" transform="matrix(1,0,0,1,0.2400000000000091,0.23510313703138763)"><svg viewBox="0 0 395.52 67.52979372593722" height="67.52979372593722" width="395.52"><g><svg viewBox="0 0 520.564325336039 88.87945365853659" height="67.52979372593722" width="395.52"><g><rect width="5.799740126282927" height="77.17463414634146" x="104.06201943414635" y="5.852409756097565" fill="#000000" opacity="1" stroke-width="0" stroke="transparent" fill-opacity="1" class="rect-qz-0" data-fill-palette-color="primary" rx="1%" id="qz-0" data-palette-color="#233565"></rect></g><g transform="matrix(1,0,0,1,125.04432533603904,12.283629268292685)"><svg viewBox="0 0 395.52 64.31219512195122" height="64.31219512195122" width="395.52"><g id="textblocktransform"><svg viewBox="0 0 395.52 64.31219512195122" height="64.31219512195122" width="395.52" id="textblock"><g><svg viewBox="0 0 395.52 64.31219512195122" height="64.31219512195122" width="395.52"><g transform="matrix(1,0,0,1,0,0)"><svg width="395.52" viewBox="2.05 -35.5 221.36999999999998 36" height="64.31219512195122" data-palette-color="#233565"><path d="M2.05 0L2.05-35 10.15-35Q14.25-35 16.3-32.8 18.35-30.6 18.35-26.35L18.35-26.35 18.35-22.9Q18.35-18.65 16.3-16.45 14.25-14.25 10.15-14.25L10.15-14.25 7.55-14.25 7.55 0 2.05 0ZM7.55-19.25L10.15-19.25Q11.5-19.25 12.18-20 12.85-20.75 12.85-22.55L12.85-22.55 12.85-26.7Q12.85-28.5 12.18-29.25 11.5-30 10.15-30L10.15-30 7.55-30 7.55-19.25ZM29.3 0.5Q25.25 0.5 23.1-1.8 20.95-4.1 20.95-8.3L20.95-8.3 20.95-26.7Q20.95-30.9 23.1-33.2 25.25-35.5 29.3-35.5L29.3-35.5Q33.35-35.5 35.5-33.2 37.65-30.9 37.65-26.7L37.65-26.7 37.65-8.3Q37.65-4.1 35.5-1.8 33.35 0.5 29.3 0.5L29.3 0.5ZM29.3-4.5Q32.15-4.5 32.15-7.95L32.15-7.95 32.15-27.05Q32.15-30.5 29.3-30.5L29.3-30.5Q26.45-30.5 26.45-27.05L26.45-27.05 26.45-7.95Q26.45-4.5 29.3-4.5L29.3-4.5ZM41.34 0L41.34-35 46.84-35 46.84-20.25 53.84-35 59.34-35 52.8-22.15 59.45 0 53.7 0 49.05-15.6 46.84-11.15 46.84 0 41.34 0ZM62.04 0L62.04-35 77.04-35 77.04-30 67.54-30 67.54-20.75 75.09-20.75 75.09-15.75 67.54-15.75 67.54-5 77.04-5 77.04 0 62.04 0ZM80.19 0L80.19-35 88.34-35Q92.59-35 94.54-33.02 96.49-31.05 96.49-26.95L96.49-26.95 96.49-24.8Q96.49-19.35 92.89-17.9L92.89-17.9 92.89-17.8Q94.89-17.2 95.72-15.35 96.54-13.5 96.54-10.4L96.54-10.4 96.54-4.25Q96.54-2.75 96.64-1.83 96.74-0.9 97.14 0L97.14 0 91.54 0Q91.24-0.85 91.14-1.6 91.04-2.35 91.04-4.3L91.04-4.3 91.04-10.7Q91.04-13.1 90.27-14.05 89.49-15 87.59-15L87.59-15 85.69-15 85.69 0 80.19 0ZM85.69-20L87.69-20Q89.34-20 90.17-20.85 90.99-21.7 90.99-23.7L90.99-23.7 90.99-26.4Q90.99-28.3 90.32-29.15 89.64-30 88.19-30L88.19-30 85.69-30 85.69-20ZM108.34 0L108.34-35 116.64-35Q120.89-35 122.84-33.02 124.79-31.05 124.79-26.95L124.79-26.95 124.79-25.55Q124.79-22.85 123.91-21.15 123.04-19.45 121.24-18.7L121.24-18.7 121.24-18.6Q125.34-17.2 125.34-11.3L125.34-11.3 125.34-8.3Q125.34-4.25 123.21-2.13 121.09 0 116.99 0L116.99 0 108.34 0ZM113.84-20.75L115.99-20.75Q117.64-20.75 118.46-21.6 119.29-22.45 119.29-24.45L119.29-24.45 119.29-26.4Q119.29-28.3 118.61-29.15 117.94-30 116.49-30L116.49-30 113.84-30 113.84-20.75ZM113.84-5L116.99-5Q118.44-5 119.14-5.78 119.84-6.55 119.84-8.45L119.84-8.45 119.84-11.5Q119.84-13.9 119.01-14.83 118.19-15.75 116.29-15.75L116.29-15.75 113.84-15.75 113.84-5ZM127.08 0L132.78-35 140.23-35 145.93 0 140.43 0 139.43-6.95 139.43-6.85 133.18-6.85 132.18 0 127.08 0ZM133.83-11.6L138.78-11.6 136.33-28.9 136.23-28.9 133.83-11.6ZM156.23 0.5Q152.28 0.5 150.21-1.75 148.13-4 148.13-8.1L148.13-8.1 148.13-26.9Q148.13-31 150.21-33.25 152.28-35.5 156.23-35.5L156.23-35.5Q160.18-35.5 162.26-33.25 164.33-31 164.33-26.9L164.33-26.9 164.33-23.2 159.13-23.2 159.13-27.25Q159.13-30.5 156.38-30.5L156.38-30.5Q153.63-30.5 153.63-27.25L153.63-27.25 153.63-7.7Q153.63-4.5 156.38-4.5L156.38-4.5Q159.13-4.5 159.13-7.7L159.13-7.7 159.13-13.05 164.33-13.05 164.33-8.1Q164.33-4 162.26-1.75 160.18 0.5 156.23 0.5L156.23 0.5ZM167.63 0L167.63-35 173.13-35 173.13-20.25 180.13-35 185.63-35 179.08-22.15 185.73 0 179.98 0 175.33-15.6 173.13-11.15 173.13 0 167.63 0ZM188.33 0L188.33-35 203.33-35 203.33-30 193.83-30 193.83-20.75 201.38-20.75 201.38-15.75 193.83-15.75 193.83-5 203.33-5 203.33 0 188.33 0ZM206.47 0L206.47-35 214.62-35Q218.87-35 220.82-33.02 222.77-31.05 222.77-26.95L222.77-26.95 222.77-24.8Q222.77-19.35 219.17-17.9L219.17-17.9 219.17-17.8Q221.17-17.2 222-15.35 222.82-13.5 222.82-10.4L222.82-10.4 222.82-4.25Q222.82-2.75 222.92-1.83 223.02-0.9 223.42 0L223.42 0 217.82 0Q217.52-0.85 217.42-1.6 217.32-2.35 217.32-4.3L217.32-4.3 217.32-10.7Q217.32-13.1 216.55-14.05 215.77-15 213.87-15L213.87-15 211.97-15 211.97 0 206.47 0ZM211.97-20L213.97-20Q215.62-20 216.45-20.85 217.27-21.7 217.27-23.7L217.27-23.7 217.27-26.4Q217.27-28.3 216.6-29.15 215.92-30 214.47-30L214.47-30 211.97-30 211.97-20Z" opacity="1" transform="matrix(1,0,0,1,0,0)" fill="#000000" class="wordmark-text-0" data-fill-palette-color="primary" id="text-0"></path></svg></g></svg></g></svg></g></svg></g><g><svg viewBox="0 0 88.87945365853659 88.87945365853659" height="88.87945365853659" width="88.87945365853659"><g><svg xmlns="http://www.w3.org/2000/svg" xmlns:xlink="http://www.w3.org/1999/xlink" version="1.1" x="0" y="0" viewBox="21.5 21.5 57 57" enable-background="new 0 0 100 100" xml:space="preserve" height="88.87945365853659" width="88.87945365853659" class="icon-icon-0" data-fill-palette-color="accent" id="icon-0"><path d="M50 21.5c-15.715 0-28.5 12.785-28.5 28.5S34.285 78.5 50 78.5 78.5 65.715 78.5 50 65.715 21.5 50 21.5zM72.793 41.033l-6.484 3.242c-0.763-2.165-1.941-4.129-3.444-5.805l5.103-5.102C70.02 35.583 71.666 38.178 72.793 41.033zM50 63.303c-7.335 0-13.303-5.968-13.303-13.303S42.665 36.697 50 36.697 63.303 42.665 63.303 50 57.335 63.303 50 63.303zM26.748 57.704l6.546-3.273c0.618 2.325 1.699 4.46 3.154 6.294l-5.116 5.116C29.318 63.472 27.749 60.717 26.748 57.704zM31.678 33.759l5.102 5.102c-1.339 1.586-2.386 3.418-3.089 5.414l-6.484-3.242C28.269 38.344 29.79 35.887 31.678 33.759zM52.852 25.671v7.281c-0.93-0.155-1.879-0.256-2.852-0.256-1.234 0-2.437 0.135-3.599 0.382v-7.313C47.576 25.593 48.777 25.5 50 25.5 50.965 25.5 51.916 25.562 52.852 25.671zM46.401 74.233v-7.313c1.162 0.247 2.364 0.382 3.599 0.382 0.973 0 1.922-0.1 2.852-0.256v7.281C51.916 74.438 50.965 74.5 50 74.5 48.777 74.5 47.576 74.407 46.401 74.233zM68.322 66.241l-5.102-5.102c1.623-1.923 2.821-4.206 3.486-6.708l6.546 3.273C72.194 60.888 70.502 63.784 68.322 66.241z" fill="#000000" data-fill-palette-color="accent"></path><path d="M51.041 47.684c-2.26-0.656-2.361-0.907-2.361-1.679 0-0.754 0.638-1.062 1.172-1.189 0.841-0.196 1.575 0.067 1.678 0.273 0.495 0.987 1.695 1.389 2.683 0.895 0.988-0.494 1.389-1.695 0.895-2.684-0.646-1.293-1.922-2.152-3.443-2.445-0.154-0.951-0.973-1.679-1.968-1.679-1.104 0-2 0.896-2 2v0.193c-1.862 0.877-3.018 2.585-3.018 4.636 0 3.997 3.284 4.95 5.246 5.52 1.998 0.58 1.998 0.75 1.998 1.12 0 0.838-0.739 1.27-1.359 1.484-1.178 0.406-2.309 0.142-2.532-0.093-0.229-1.067-1.274-1.756-2.348-1.541-1.083 0.217-1.786 1.271-1.569 2.354 0.337 1.685 1.714 2.881 3.591 3.31 0.044 1.066 0.915 1.919 1.992 1.919 1.104 0 2-0.896 2-2V57.95c2.545-0.809 4.225-2.819 4.225-5.305C55.923 49.101 52.867 48.214 51.041 47.684z" fill="#000000" data-fill-palette-color="accent"></path></svg></g></svg></g></svg></g><defs></defs></svg><rect width="395.52" height="67.52979372593722" fill="none" stroke="none" visibility="hidden"></rect></g></svg></g></svg>